<?xml version="1.0" encoding="utf-8"?>
<!-- Generator: Adobe Illustrator 18.0.0, SVG Export Plug-In . SVG Version: 6.00 Build 0)  -->
<!DOCTYPE svg PUBLIC "-//W3C//DTD SVG 1.1//EN" "http://www.w3.org/Graphics/SVG/1.1/DTD/svg11.dtd">
<svg version="1.1" id="Layer_1" xmlns="http://www.w3.org/2000/svg" xmlns:xlink="http://www.w3.org/1999/xlink" x="0px" y="0px"
	 viewBox="0 0 792 612" enable-background="new 0 0 792 612" xml:space="preserve">
<path d="M643.2,184.6c15.3,8.9,31.9,13.4,49.8,13.4c27.5,0,50.9-9.6,70.1-28.9C782.4,149.9,792,126.5,792,99s-9.6-50.9-28.9-70.1
	C743.9,9.6,720.5,0,693,0c-17.9,0-34.4,4.5-49.8,13.4c-15.3,8.9-27.2,21-35.8,36.1H184.6c-8.6-15.1-20.5-27.2-35.8-36.1
	C133.4,4.5,116.9,0,99,0C71.5,0,48.1,9.6,28.9,28.9C9.6,48.1,0,71.5,0,99s9.6,50.9,28.9,70.1C48.1,188.4,71.5,198,99,198
	c17.9,0,34.4-4.5,49.8-13.4c15.3-8.9,27.2-21,35.8-36.1H198c23.7,0,40.9,7.1,51.6,21.4c10.7,14.3,22.8,43.4,36.6,87.4
	c14.8,46.4,28.7,81.3,41.8,104.7c43,75.8,112.7,114.7,209.1,116.5c1.4,0,68.9,0,70.4,0.1c8.6,15.1,20.5,27.2,35.8,36.1
	c15.3,8.9,31.9,13.4,49.8,13.4c27.5,0,50.9-9.6,70.1-28.9c19.2-19.2,28.9-42.6,28.9-70.1s-9.6-50.9-28.9-70.1
	C743.9,339.6,720.5,330,693,330c-17.9,0-34.4,4.5-49.8,13.4c-15.3,8.9-27.2,21-35.8,36.1c-2.5,0-71,0-73.4-0.1
	c-14.9-0.3-28.1-1.8-39.8-4.3c-13.6-2.9-25.5-7.7-35.8-14.4s-19.1-13.7-26.3-20.9c-7.2-7.2-14-17.4-20.4-30.4
	c-6.3-13-11.7-25.2-16-36.4c-4.3-11.2-9.4-26.2-15.2-45.1c-10.7-34.4-20.5-60.8-29.4-79.4h256.3C616,163.6,627.9,175.7,643.2,184.6z
	 M657.9,63.9c9.6-9.6,21.3-14.4,35.1-14.4s25.4,4.8,35.1,14.4s14.4,21.3,14.4,35.1s-4.8,25.4-14.4,35.1s-21.3,14.4-35.1,14.4
	s-25.4-4.8-35.1-14.4s-14.4-21.3-14.4-35.1S648.3,73.6,657.9,63.9z M134.1,134.1c-9.6,9.6-21.3,14.4-35.1,14.4s-25.4-4.8-35.1-14.4
	S49.5,112.8,49.5,99s4.8-25.4,14.4-35.1S85.2,49.5,99,49.5s25.4,4.8,35.1,14.4s14.4,21.3,14.4,35.1S143.7,124.4,134.1,134.1z
	 M657.9,393.9c9.6-9.6,21.3-14.4,35.1-14.4s25.4,4.8,35.1,14.4s14.4,21.3,14.4,35.1s-4.8,25.4-14.4,35.1s-21.3,14.4-35.1,14.4
	s-25.4-4.8-35.1-14.4s-14.4-21.3-14.4-35.1S648.3,403.6,657.9,393.9z"/>
</svg>
